# xmcd
# 
# Track frame offsets:
#     150
#     12174
#     26042
#     43727
#     67934
#     85338
#     108944
#     115244
#     133848
#     155922
#     175915
#     194259
# 
# Disc length: 2900
# 
# Revision: 2
# Processed by: cddbd v1.5.2PL0 Copyright (c) Steve Scherf et al.
# Submitted via: fre:ac v1.0.17
# 
DISCID=a10b520c
DTITLE=Clutch - From Beale Street to Oblivion
DYEAR=2007
DGENRE=Rock
TTITLE0=You Can't Stop Progress
TTITLE1=Power Player
TTITLE2=The Devil and Me
TTITLE3=White's Ferry
TTITLE4=Child of the City
TTITLE5=Electric Worry
TTITLE6=One Eye Dollar
TTITLE7=Rapture of Riddley Walker
TTITLE8=When Vegans Attack
TTITLE9=Opossum Minister
TTITLE10=Black Umbrella
TTITLE11=Mr. Shiny Cadillackness
EXTD=
EXTT0=
EXTT1=
EXTT2=
EXTT3=
EXTT4=
EXTT5=
EXTT6=
EXTT7=
EXTT8=
EXTT9=
EXTT10=
EXTT11=
PLAYORDER=
